<svg width="32" height="32" viewBox="0 0 60 60" fill="none" xmlns="http://www.w3.org/2000/svg">
  <path fill-rule="evenodd" clip-rule="evenodd" d="M34.6569 6.37258C31.5327 3.24839 26.4673 3.24839 23.3431 6.37258L6.37258 23.3431C3.24839 26.4673 3.24839 31.5327 6.37258 34.6569L23.3431 51.6274C26.4673 54.7516 31.5327 54.7516 34.6569 51.6274L51.6274 34.6569C54.7516 31.5327 54.7516 26.4673 51.6274 23.3431L34.6569 6.37258ZM29.9685 11.5117L33.3918 23.9838L45.8642 27.9743C46.8117 28.2775 46.7836 29.6277 45.8243 29.8911L33.0787 33.3902L29.9395 46.1884C29.6926 47.1948 28.2663 47.2076 28.0015 46.2058L24.6134 33.3902L11.4162 29.9028C10.4413 29.6451 10.4173 28.2701 11.3827 27.9786L24.6134 23.9838L28.0399 11.5115C28.3091 10.5313 29.6994 10.5314 29.9685 11.5117Z" fill="#DDFF55" stroke="black" stroke-width="1.5" stroke-linejoin="round"/>
</svg>
