<svg width="225" height="58" viewBox="0 0 225 58" fill="none" xmlns="http://www.w3.org/2000/svg">
<path d="M89.92 28.1901H78.82V31.8201H85.06C84.46 34.4901 82.45 36.3801 79.27 36.3801C74.95 36.3801 72.64 33.2001 72.64 29.0601C72.64 24.4401 75.28 21.8901 78.76 21.8901C81.64 21.8901 83.62 23.5401 84.28 25.7301H89.65C88.24 21.0501 84.34 17.8101 78.88 17.8101C72.58 17.8101 67.96 22.5801 67.96 28.9401C67.96 35.6001 72.82 40.2501 79.06 40.2501C85.93 40.2501 90.46 35.3301 89.92 28.1901Z" fill="#191B1D" stroke="black" stroke-width="1.5" stroke-linejoin="round"/>
<path d="M97.6554 20.06C97.6554 18.59 96.5154 17.54 94.8654 17.54C93.2154 17.54 92.0754 18.59 92.0754 20.06C92.0754 21.47 93.2154 22.52 94.8654 22.52C96.5154 22.52 97.6554 21.47 97.6554 20.06ZM96.9654 39.8V23.78H92.8254V39.8H96.9654Z" fill="#191B1D" stroke="black" stroke-width="1.5" stroke-linejoin="round"/>
<path d="M106.316 39.8002V27.3502H110.516V23.7802H106.316V23.0002C106.316 21.8902 107.096 21.4402 108.236 21.4402C108.776 21.4402 109.376 21.5302 109.826 21.7102V18.4102C109.136 18.1102 108.266 17.9302 107.246 17.9302C103.916 17.9302 102.176 19.7302 102.176 22.9102V23.7802H98.9657V27.3502H102.176V39.8002H106.316Z" fill="#191B1D" stroke="black" stroke-width="1.5" stroke-linejoin="round"/>
<path d="M122.354 39.38V35.75C121.754 36.08 121.034 36.26 120.254 36.26C118.724 36.26 117.884 35.51 117.884 33.65V27.35H122.474V23.78H117.884V19.04H113.744V23.78H110.534V27.35H113.744V34.61C113.744 38.21 115.844 40.1 119.144 40.1C120.374 40.1 121.334 39.89 122.354 39.38Z" fill="#191B1D" stroke="black" stroke-width="1.5" stroke-linejoin="round"/>
<path d="M139.717 34.37H135.607C135.127 35.96 133.867 36.86 132.037 36.86C129.907 36.86 128.497 35.27 128.467 32.81H139.777C140.527 27.59 137.167 23.48 132.097 23.48C127.477 23.48 124.147 26.96 124.147 31.73C124.147 36.77 127.387 40.07 132.157 40.07C136.027 40.07 138.817 37.97 139.717 34.37ZM132.007 26.54C133.957 26.54 135.247 27.95 135.337 30.17H128.467C128.647 28.04 130.027 26.54 132.007 26.54Z" fill="#191B1D" stroke="black" stroke-width="1.5" stroke-linejoin="round"/>
<path d="M146.562 32.0302C146.562 28.4902 148.962 27.6202 152.502 27.9202V23.7202C149.832 23.4502 147.402 24.8302 146.232 26.8702V23.7802H142.422V39.8002H146.562V32.0302Z" fill="#191B1D" stroke="black" stroke-width="1.5" stroke-linejoin="round"/>
<path d="M169.22 23.7798H165.05L161.36 34.7598L157.37 23.7798H152.87L159.14 39.6198L156.89 45.5898H161.39L169.22 23.7798Z" fill="#191B1D" stroke="black" stroke-width="1.5" stroke-linejoin="round"/>
<path d="M174.075 37.1298C174.075 35.4498 172.935 34.2798 171.285 34.2798C169.635 34.2798 168.465 35.4498 168.465 37.1298C168.465 38.7798 169.635 39.9498 171.285 39.9498C172.935 39.9498 174.075 38.7798 174.075 37.1298Z" fill="#191B1D" stroke="black" stroke-width="1.5" stroke-linejoin="round"/>
<path d="M185.86 32.7798C191.11 32.7798 194.38 30.1098 194.38 25.4298C194.38 20.7498 191.11 18.2598 185.86 18.2598H177.88V39.7998H182.44V32.7798H185.86ZM185.83 22.0998C188.38 22.0998 189.85 23.3298 189.85 25.4598C189.85 27.5898 188.38 28.9398 185.83 28.9398H182.44V22.0998H185.83Z" fill="#191B1D" stroke="black" stroke-width="1.5" stroke-linejoin="round"/>
<path d="M201.435 32.0302C201.435 28.4902 203.835 27.6202 207.375 27.9202V23.7202C204.705 23.4502 202.275 24.8302 201.105 26.8702V23.7802H197.295V39.8002H201.435V32.0302Z" fill="#191B1D" stroke="black" stroke-width="1.5" stroke-linejoin="round"/>
<path d="M224.753 31.79C224.753 27.11 221.243 23.48 216.623 23.48C211.973 23.48 208.493 27.11 208.493 31.79C208.493 36.44 211.973 40.1 216.623 40.1C221.243 40.1 224.753 36.44 224.753 31.79ZM212.783 31.79C212.783 28.82 214.553 27.2 216.623 27.2C218.693 27.2 220.433 28.82 220.433 31.79C220.433 34.76 218.693 36.41 216.623 36.41C214.523 36.41 212.783 34.76 212.783 31.79Z" fill="#191B1D" stroke="black" stroke-width="1.5" stroke-linejoin="round"/>
<path fill-rule="evenodd" clip-rule="evenodd" d="M34.657 6.37244C31.5328 3.24825 26.4674 3.24825 23.3432 6.37244L6.37268 23.343C3.24849 26.4672 3.24849 31.5326 6.37268 34.6568L23.3432 51.6273C26.4674 54.7515 31.5328 54.7515 34.657 51.6273L51.6275 34.6568C54.7517 31.5326 54.7517 26.4672 51.6275 23.343L34.657 6.37244ZM29.9686 11.5116L33.3919 23.9837L45.8643 27.9742C46.8118 28.2774 46.7837 29.6276 45.8244 29.891L33.0788 33.3901L29.9396 46.1883C29.6927 47.1947 28.2664 47.2075 28.0016 46.2057L24.6135 33.3901L11.4163 29.9027C10.4414 29.645 10.4174 28.27 11.3828 27.9785L24.6135 23.9837L28.04 11.5114C28.3092 10.5312 29.6995 10.5313 29.9686 11.5116Z" fill="#DDFF55" stroke="black" stroke-width="1.5" stroke-linejoin="round"/>
</svg>
