<svg width="294" height="294" viewBox="0 0 294 294" fill="none" xmlns="http://www.w3.org/2000/svg">
<path d="M115.378 15.5508C132.779 -1.85015 160.992 -1.85021 178.394 15.5508L278.221 115.378C295.622 132.779 295.622 160.992 278.221 178.394L178.394 278.221C160.992 295.622 132.779 295.622 115.378 278.221L15.5508 178.394C-1.85021 160.992 -1.85015 132.779 15.5508 115.378L115.378 15.5508ZM154.993 43.3516C152.738 35.1348 141.084 35.1331 138.827 43.3496L119.037 115.384L42.5322 138.484C34.4401 140.928 34.641 152.453 42.8125 154.613L119.036 174.755L138.595 248.735C140.815 257.133 152.77 257.025 154.84 248.59L172.955 174.732L246.514 154.538C254.555 152.33 254.79 141.012 246.849 138.471L174.771 115.409L154.993 43.3516Z" fill="#DDFF55" stroke="black" stroke-width="5"/>
</svg>
